<svg width="1024" height="1024" viewBox="0 0 1024 1024" fill="none" xmlns="http://www.w3.org/2000/svg">
  <g fill="#7b8083" stroke="#111827" stroke-width="10" stroke-opacity="0.55" stroke-linejoin="round">
    <rect x="174" y="394" width="124" height="206" rx="19"/>
    <path d="M314 399L537 211C550 200 570 209 570 226V735C570 752 550 761 537 750L314 602C309 598 306 592 306 585V416C306 409 309 403 314 399Z"/>
    <path d="M647 344C698 392 724 440 724 498C724 557 698 608 648 654L620 626C661 588 681 546 681 498C681 452 660 413 620 375L647 344Z"/>
    <path d="M704 249C778 310 816 393 816 499C816 604 778 690 705 751L676 716C739 662 770 590 770 499C770 407 739 338 675 285L704 249Z"/>
  </g>
</svg>
